<svg width="700" height="700" viewBox="0 0 700 700" fill="none" xmlns="http://www.w3.org/2000/svg">
<circle cx="350" cy="350" r="350" fill="black"/>
<path d="M450.815 359.712C450.644 330.442 463.906 308.382 490.687 292.116C475.708 270.657 453.047 258.854 423.176 256.579C394.893 254.348 363.948 273.06 352.618 273.06C340.644 273.06 313.262 257.352 291.717 257.352C247.253 258.039 200 292.803 200 363.532C200 384.433 203.82 406.021 211.459 428.253C221.674 457.524 258.498 529.24 296.91 528.082C316.996 527.609 331.202 513.833 357.339 513.833C382.704 513.833 395.837 528.082 418.24 528.082C456.996 527.524 490.3 462.331 500 432.974C448.026 408.468 450.815 361.215 450.815 359.712V359.712ZM405.708 228.811C427.468 202.974 425.494 179.455 424.85 171C405.622 172.116 383.391 184.09 370.73 198.811C356.781 214.605 348.584 234.133 350.343 256.15C371.116 257.738 390.086 247.052 405.708 228.811V228.811Z" fill="white"/>
</svg>
