<svg height="70" width="70" xmlns="http://www.w3.org/2000/svg" class="Icons__Svg-sc-18oh6yi-0 fDjRKo"><g fill="none"><path d="M43.597 40.919c.257 0 .465.208.465.464v2.243c0 1.583-1.358 2.867-3.004 2.867H28.942c-1.647 0-3.003-1.283-3.003-2.867v-2.243a.464.464 0 01.929 0v2.243c0 1.06.928 1.938 2.074 1.938h12.116c1.145 0 2.075-.88 2.075-1.938v-2.243c0-.256.208-.464.464-.464zm.68-12.775c1.767 0 3.223 1.358 3.223 3.038v4.144c0 1.68-1.456 3.037-3.224 3.037H38.33v.25a2.085 2.085 0 01-1.938 2.069l-.148.005h-2.486a2.085 2.085 0 01-2.087-2.073v-.25h-5.948c-1.766 0-3.222-1.359-3.222-3.038v-4.144c0-1.68 1.456-3.038 3.222-3.038h18.554zm-8.034 7.897h-2.486c-.637 0-1.158.516-1.158 1.143v1.43c0 .627.521 1.144 1.158 1.144h2.486c.637 0 1.158-.517 1.158-1.144v-1.429c0-.628-.52-1.144-1.158-1.144zm8.033-6.968H25.722c-1.267 0-2.293.958-2.293 2.11v4.143c0 1.151 1.026 2.109 2.293 2.109h5.948v-.25c0-1.093.86-1.991 1.939-2.067l.148-.006h2.486c1.148 0 2.087.93 2.087 2.073l-.001.25h5.947c1.269 0 2.295-.958 2.295-2.11v-4.143c0-1.152-1.026-2.109-2.295-2.109zm-6.735-5.574c1.083 0 1.935.988 1.935 2.168v.619a.464.464 0 01-.929 0v-.62c0-.694-.469-1.238-1.006-1.238h-5.083c-.535 0-1.006.545-1.006 1.239v.619a.464.464 0 01-.928 0v-.62c0-1.178.854-2.167 1.934-2.167z" fill="#383839"></path></g></svg>