<svg height="70" width="70" xmlns="http://www.w3.org/2000/svg" class="Icons__Svg-sc-18oh6yi-0 fDjRKo"><g fill="none"><circle cx="35" cy="35" fill="#F8F8F8" r="35"></circle><g fill="#383839"><path d="M26.083 31.694h-4.071c-.728 0-1.355.506-1.355 1.191v11.554c0 .755.613 1.367 1.368 1.367h1.42a.5.5 0 100-1h-1.42a.367.367 0 01-.368-.367V32.886c0-.08.139-.192.355-.192h4.07a.5.5 0 100-1zm15.957-3.702v1.057a.5.5 0 001 0v-1.057a.5.5 0 00-1 0zm0 3.953v1.158a.5.5 0 001 0v-1.158a.5.5 0 00-1 0zm0 4.054v1.057a.5.5 0 001 0v-1.057a.5.5 0 00-1 0zm-4.228-8.007v1.057a.5.5 0 001 0v-1.057a.5.5 0 10-1 0zm0 3.953v1.158a.5.5 0 001 0v-1.158a.5.5 0 10-1 0zm0 4.054v1.057a.5.5 0 001 0v-1.057a.5.5 0 10-1 0zm-4.226-8.007v1.057a.5.5 0 001 0v-1.057a.5.5 0 00-1 0zm0 3.953v1.158a.5.5 0 001 0v-1.158a.5.5 0 00-1 0zm0 4.054v1.057a.5.5 0 001 0v-1.057a.5.5 0 00-1 0z"></path><path d="M24.445 36.108v.98a.5.5 0 001 0v-.98a.5.5 0 00-1 0zm0 4.305v.98a.5.5 0 001 0v-.98a.5.5 0 00-1 0zm5.423-16.756h16.89c.902 0 1.634.732 1.634 1.635v20.515H42.04v-3.652a.458.458 0 00-.457-.458h-6.54a.458.458 0 00-.457.458v3.652h-6.353V25.292c0-.903.732-1.635 1.635-1.635zm17.524 1.635a.635.635 0 00-.634-.635h-16.89a.635.635 0 00-.635.635v19.515h4.353v-2.652c0-.805.652-1.458 1.457-1.458h6.54c.804 0 1.457.653 1.457 1.458v2.652h4.352V25.292z"></path></g></g></svg>