<svg height="70" width="70" xmlns="http://www.w3.org/2000/svg" class="Icons__Svg-sc-18oh6yi-0 fDjRKo"><g fill="none"><circle cx="35" cy="35" fill="#F8F8F8" r="35"></circle><path d="M27.609 22.467c.276 0 .5.209.5.466v1.175h13.849v-1.065c0-.23.177-.42.41-.459l.09-.007c.277 0 .5.208.5.466v1.065h.064c.229 0 .42.165.459.383l.007.083a.467.467 0 01-.466.467l-.064-.001v1.067a.475.475 0 01-.41.458l-.09.008c-.276 0-.5-.209-.5-.466V25.04H28.109v1.176c0 .229-.177.42-.41.459l-.09.007c-.276 0-.5-.208-.5-.466V25.04h-.985c-1.484 0-2.606 1.12-2.687 2.666l-.005.18v1.793h23.135v-.966c0-.229.166-.419.383-.458l.084-.008c.257 0 .466.209.466.466v13.52c0 2.722-2.11 4.88-4.678 4.88H26.576c-2.217 0-4.076-1.948-4.076-4.25V27.886c0-2.144 1.558-3.778 3.624-3.778h.985v-1.175c0-.229.177-.419.41-.458zm18.958 8.212H23.432v12.184c0 1.734 1.353 3.213 2.97 3.313l.174.005h16.246c2.048 0 3.746-1.736 3.746-3.948l-.001-11.554zm-4.807 9.634c.257 0 .466.224.466.5s-.209.5-.466.5h-1.606c-.257 0-.466-.224-.466-.5s.209-.5.466-.5zm-11.964 0c.257 0 .466.224.466.5s-.209.5-.466.5h-1.604c-.258 0-.467-.224-.467-.5s.21-.5.467-.5zm5.981 0c.258 0 .466.224.466.5s-.208.5-.466.5h-1.604c-.257 0-.466-.224-.466-.5s.209-.5.466-.5zm5.983-4.88c.257 0 .466.223.466.5 0 .276-.209.5-.466.5h-1.606c-.257 0-.466-.224-.466-.5 0-.277.209-.5.466-.5zm-11.964 0c.257 0 .466.223.466.5 0 .276-.209.5-.466.5h-1.604c-.258 0-.467-.224-.467-.5 0-.277.21-.5.467-.5zm5.981 0c.258 0 .466.223.466.5 0 .276-.208.5-.466.5h-1.604c-.257 0-.466-.224-.466-.5 0-.277.209-.5.466-.5z" fill="#383839"></path></g></svg>