<svg width="18" height="18" viewBox="0 0 18 18" fill="none" xmlns="http://www.w3.org/2000/svg">
<path d="M14.35 10.8C13.55 9.7 12.2 9 10.75 8.95C12.1 8.2 13 6.8 13 5.15C13 2.8 11.05 0.85 8.7 0.85C6.35 0.85 4.4 2.8 4.4 5.15C4.4 6.7 5.25 8.1 6.55 8.9C6.6 8.9 6.6 8.95 6.65 8.95C4.3 9.1 2.4 10.9 2.4 13.05V14.55C2.4 16 3.7 17.15 5.2 17.15H10.35C10.55 17.15 10.75 17 10.75 16.75C10.75 16.55 10.6 16.35 10.35 16.35H5.2C4.05 16.35 3.15 15.5 3.15 14.5V13C3.15 11.15 4.85 9.6 6.95 9.6H10.6C11.9 9.6 13.1 10.2 13.8 11.15C13.9 11.3 14.15 11.35 14.3 11.25C14.45 11.15 14.5 10.95 14.35 10.8ZM5.1 5.15C5.1 3.2 6.7 1.6 8.65 1.6C10.6 1.6 12.2 3.2 12.2 5.15C12.2 7.1 10.6 8.7 8.65 8.7C8 8.7 7.4 8.55 6.85 8.2C5.8 7.6 5.1 6.45 5.1 5.15Z" fill="#737373"/>
<path d="M13.45 15L11.45 13C11.3 12.85 11.05 12.85 10.9 13C10.75 13.15 10.75 13.4 10.9 13.5L13.4 16L17.85 11.55C18 11.4 18 11.15 17.85 11C17.7 10.85 17.45 10.85 17.3 11L13.45 15Z" fill="#737373"/>
</svg>
