<svg width="506" height="140" viewBox="0 0 506 140" fill="none" xmlns="http://www.w3.org/2000/svg">
<circle cx="70" cy="70" r="67.5" stroke="#ADA396" stroke-width="5"/>
<circle cx="69.5" cy="69.5" r="12.5" fill="#ADA396"/>
<circle cx="69.5" cy="38.5" r="12.5" fill="#ADA396"/>
<circle cx="69.5" cy="100.5" r="12.5" fill="#ADA396"/>
<circle cx="100.5" cy="69.5" r="12.5" fill="#ADA396"/>
<circle cx="38.5" cy="69.5" r="12.5" fill="#ADA396"/>
<path d="M217.016 53.207H201.498V96H192.919V53.207H177.538V46.2344H217.016V53.207ZM230.961 63.0508C233.673 59.9062 237.102 58.334 241.249 58.334C249.133 58.334 253.132 62.8343 253.246 71.835V96H244.94V72.1426C244.94 69.5905 244.382 67.7904 243.266 66.7422C242.172 65.6712 240.554 65.1357 238.412 65.1357C235.085 65.1357 232.602 66.6169 230.961 69.5791V96H222.655V43.5H230.961V63.0508ZM277.958 96.6836C272.694 96.6836 268.422 95.0316 265.141 91.7275C261.882 88.4007 260.253 83.9801 260.253 78.4658V77.4404C260.253 73.749 260.959 70.4564 262.372 67.5625C263.808 64.6458 265.813 62.3786 268.388 60.7607C270.963 59.1429 273.834 58.334 277.001 58.334C282.037 58.334 285.922 59.9404 288.656 63.1533C291.413 66.3662 292.792 70.9121 292.792 76.791V80.1406H268.627C268.878 83.194 269.892 85.6094 271.669 87.3867C273.469 89.1641 275.725 90.0527 278.437 90.0527C282.242 90.0527 285.341 88.5146 287.733 85.4385L292.211 89.7109C290.73 91.9212 288.747 93.6416 286.264 94.8721C283.803 96.0798 281.034 96.6836 277.958 96.6836ZM276.967 64.999C274.688 64.999 272.842 65.7965 271.43 67.3916C270.04 68.9867 269.151 71.2083 268.764 74.0566H284.589V73.4414C284.407 70.6615 283.666 68.5651 282.367 67.1523C281.068 65.7168 279.268 64.999 276.967 64.999Z" fill="#333333"/>
<path d="M365.059 96V46.2344H379.756C384.154 46.2344 388.05 47.2142 391.445 49.1738C394.863 51.1335 397.507 53.9134 399.375 57.5137C401.243 61.1139 402.178 65.2383 402.178 69.8867V72.3818C402.178 77.0986 401.232 81.2458 399.341 84.8232C397.472 88.4007 394.795 91.1579 391.309 93.0947C387.845 95.0316 383.869 96 379.38 96H365.059ZM373.706 53.207V89.0957H379.346C383.88 89.0957 387.355 87.6829 389.771 84.8574C392.209 82.0091 393.451 77.9303 393.496 72.6211V69.8525C393.496 64.4521 392.323 60.3278 389.976 57.4795C387.629 54.6312 384.222 53.207 379.756 53.207H373.706ZM408.433 77.167C408.433 73.5439 409.15 70.2855 410.586 67.3916C412.021 64.4749 414.038 62.2419 416.636 60.6924C419.233 59.1201 422.218 58.334 425.591 58.334C430.581 58.334 434.626 59.9404 437.725 63.1533C440.846 66.3662 442.533 70.6273 442.783 75.9365L442.817 77.8848C442.817 81.5306 442.111 84.7891 440.698 87.6602C439.308 90.5312 437.303 92.7529 434.683 94.3252C432.085 95.8975 429.077 96.6836 425.659 96.6836C420.441 96.6836 416.26 94.9518 413.115 91.4883C409.993 88.002 408.433 83.3649 408.433 77.5771V77.167ZM416.738 77.8848C416.738 81.6901 417.524 84.6751 419.097 86.8398C420.669 88.9818 422.856 90.0527 425.659 90.0527C428.462 90.0527 430.638 88.959 432.188 86.7715C433.76 84.584 434.546 81.3825 434.546 77.167C434.546 73.43 433.737 70.4678 432.119 68.2803C430.524 66.0928 428.348 64.999 425.591 64.999C422.879 64.999 420.726 66.0814 419.131 68.2461C417.536 70.388 416.738 73.6009 416.738 77.8848ZM460.249 50.0283V59.0176H466.777V65.1699H460.249V85.8145C460.249 87.2272 460.522 88.2526 461.069 88.8906C461.639 89.5059 462.642 89.8135 464.077 89.8135C465.034 89.8135 466.003 89.6995 466.982 89.4717V95.8975C465.091 96.4215 463.268 96.6836 461.514 96.6836C455.133 96.6836 451.943 93.1631 451.943 86.1221V65.1699H445.859V59.0176H451.943V50.0283H460.249ZM493.882 85.9512C493.882 84.4701 493.267 83.3421 492.036 82.5674C490.828 81.7926 488.812 81.109 485.986 80.5166C483.161 79.9242 480.802 79.1722 478.911 78.2607C474.764 76.2555 472.69 73.3503 472.69 69.5449C472.69 66.3548 474.035 63.6888 476.724 61.5469C479.412 59.4049 482.83 58.334 486.978 58.334C491.398 58.334 494.964 59.4277 497.676 61.6152C500.41 63.8027 501.777 66.6396 501.777 70.126H493.472C493.472 68.5309 492.879 67.2093 491.694 66.1611C490.509 65.0902 488.937 64.5547 486.978 64.5547C485.155 64.5547 483.662 64.9762 482.5 65.8193C481.361 66.6624 480.791 67.7904 480.791 69.2031C480.791 70.4792 481.326 71.4704 482.397 72.1768C483.468 72.8831 485.633 73.6009 488.892 74.3301C492.15 75.0365 494.702 75.891 496.548 76.8936C498.416 77.8734 499.795 79.0583 500.684 80.4482C501.595 81.8382 502.051 83.5244 502.051 85.5068C502.051 88.8337 500.672 91.5339 497.915 93.6074C495.158 95.6582 491.546 96.6836 487.08 96.6836C484.049 96.6836 481.349 96.1367 478.979 95.043C476.61 93.9492 474.764 92.4453 473.442 90.5312C472.121 88.6172 471.46 86.555 471.46 84.3447H479.526C479.64 86.3044 480.381 87.8197 481.748 88.8906C483.115 89.9388 484.927 90.4629 487.183 90.4629C489.37 90.4629 491.034 90.0527 492.173 89.2324C493.312 88.3893 493.882 87.2956 493.882 85.9512Z" fill="#333333"/>
<rect x="298" y="75" width="62" height="6" fill="#ADA396"/>
</svg>
