<svg width="330" height="78" viewBox="0 0 330 78" fill="none" xmlns="http://www.w3.org/2000/svg">
<path d="M41.0156 22.207H25.498V65H16.9189V22.207H1.53809V15.2344H41.0156V22.207ZM54.9609 32.0508C57.6725 28.9062 61.1019 27.334 65.249 27.334C73.1331 27.334 77.1322 31.8343 77.2461 40.835V65H68.9404V41.1426C68.9404 38.5905 68.3822 36.7904 67.2656 35.7422C66.1719 34.6712 64.554 34.1357 62.4121 34.1357C59.0853 34.1357 56.6016 35.6169 54.9609 38.5791V65H46.6553V12.5H54.9609V32.0508ZM101.958 65.6836C96.6943 65.6836 92.4219 64.0316 89.1406 60.7275C85.8822 57.4007 84.2529 52.9801 84.2529 47.4658V46.4404C84.2529 42.749 84.9593 39.4564 86.3721 36.5625C87.8076 33.6458 89.8128 31.3786 92.3877 29.7607C94.9626 28.1429 97.8337 27.334 101.001 27.334C106.037 27.334 109.922 28.9404 112.656 32.1533C115.413 35.3662 116.792 39.9121 116.792 45.791V49.1406H92.627C92.8776 52.194 93.8916 54.6094 95.6689 56.3867C97.4691 58.1641 99.7249 59.0527 102.437 59.0527C106.242 59.0527 109.341 57.5146 111.733 54.4385L116.211 58.7109C114.73 60.9212 112.747 62.6416 110.264 63.8721C107.803 65.0798 105.034 65.6836 101.958 65.6836ZM100.967 33.999C98.6882 33.999 96.8424 34.7965 95.4297 36.3916C94.0397 37.9867 93.151 40.2083 92.7637 43.0566H108.589V42.4414C108.407 39.6615 107.666 37.5651 106.367 36.1523C105.068 34.7168 103.268 33.999 100.967 33.999Z" fill="#333333"/>
<path d="M189.059 65V15.2344H203.756C208.154 15.2344 212.05 16.2142 215.445 18.1738C218.863 20.1335 221.507 22.9134 223.375 26.5137C225.243 30.1139 226.178 34.2383 226.178 38.8867V41.3818C226.178 46.0986 225.232 50.2458 223.341 53.8232C221.472 57.4007 218.795 60.1579 215.309 62.0947C211.845 64.0316 207.869 65 203.38 65H189.059ZM197.706 22.207V58.0957H203.346C207.88 58.0957 211.355 56.6829 213.771 53.8574C216.209 51.0091 217.451 46.9303 217.496 41.6211V38.8525C217.496 33.4521 216.323 29.3278 213.976 26.4795C211.629 23.6312 208.222 22.207 203.756 22.207H197.706ZM232.433 46.167C232.433 42.5439 233.15 39.2855 234.586 36.3916C236.021 33.4749 238.038 31.2419 240.636 29.6924C243.233 28.1201 246.218 27.334 249.591 27.334C254.581 27.334 258.626 28.9404 261.725 32.1533C264.846 35.3662 266.533 39.6273 266.783 44.9365L266.817 46.8848C266.817 50.5306 266.111 53.7891 264.698 56.6602C263.308 59.5312 261.303 61.7529 258.683 63.3252C256.085 64.8975 253.077 65.6836 249.659 65.6836C244.441 65.6836 240.26 63.9518 237.115 60.4883C233.993 57.002 232.433 52.3649 232.433 46.5771V46.167ZM240.738 46.8848C240.738 50.6901 241.524 53.6751 243.097 55.8398C244.669 57.9818 246.856 59.0527 249.659 59.0527C252.462 59.0527 254.638 57.959 256.188 55.7715C257.76 53.584 258.546 50.3825 258.546 46.167C258.546 42.43 257.737 39.4678 256.119 37.2803C254.524 35.0928 252.348 33.999 249.591 33.999C246.879 33.999 244.726 35.0814 243.131 37.2461C241.536 39.388 240.738 42.6009 240.738 46.8848ZM284.249 19.0283V28.0176H290.777V34.1699H284.249V54.8145C284.249 56.2272 284.522 57.2526 285.069 57.8906C285.639 58.5059 286.642 58.8135 288.077 58.8135C289.034 58.8135 290.003 58.6995 290.982 58.4717V64.8975C289.091 65.4215 287.268 65.6836 285.514 65.6836C279.133 65.6836 275.943 62.1631 275.943 55.1221V34.1699H269.859V28.0176H275.943V19.0283H284.249ZM317.882 54.9512C317.882 53.4701 317.267 52.3421 316.036 51.5674C314.828 50.7926 312.812 50.109 309.986 49.5166C307.161 48.9242 304.802 48.1722 302.911 47.2607C298.764 45.2555 296.69 42.3503 296.69 38.5449C296.69 35.3548 298.035 32.6888 300.724 30.5469C303.412 28.4049 306.83 27.334 310.978 27.334C315.398 27.334 318.964 28.4277 321.676 30.6152C324.41 32.8027 325.777 35.6396 325.777 39.126H317.472C317.472 37.5309 316.879 36.2093 315.694 35.1611C314.509 34.0902 312.937 33.5547 310.978 33.5547C309.155 33.5547 307.662 33.9762 306.5 34.8193C305.361 35.6624 304.791 36.7904 304.791 38.2031C304.791 39.4792 305.326 40.4704 306.397 41.1768C307.468 41.8831 309.633 42.6009 312.892 43.3301C316.15 44.0365 318.702 44.891 320.548 45.8936C322.416 46.8734 323.795 48.0583 324.684 49.4482C325.595 50.8382 326.051 52.5244 326.051 54.5068C326.051 57.8337 324.672 60.5339 321.915 62.6074C319.158 64.6582 315.546 65.6836 311.08 65.6836C308.049 65.6836 305.349 65.1367 302.979 64.043C300.61 62.9492 298.764 61.4453 297.442 59.5312C296.121 57.6172 295.46 55.555 295.46 53.3447H303.526C303.64 55.3044 304.381 56.8197 305.748 57.8906C307.115 58.9388 308.927 59.4629 311.183 59.4629C313.37 59.4629 315.034 59.0527 316.173 58.2324C317.312 57.3893 317.882 56.2956 317.882 54.9512Z" fill="#333333"/>
<rect x="122" y="44" width="62" height="6" fill="#ADA396"/>
</svg>
