<svg version="1.1" viewBox="0 0 97 24" x="0" xmlns="http://www.w3.org/2000/svg" xml:space="preserve" y="0" class="Logo__Svg-ab3md1-0 jtqyEQ"><title>The Dots</title><path d="M11.9 0C5.4 0 0 5.4 0 11.9s5.4 11.9 11.9 11.9 11.9-5.4 11.9-11.9C23.9 5.4 18.5 0 11.9 0zm0 22.4c-5.8 0-10.5-4.7-10.5-10.5S6.2 1.5 11.9 1.5 22.4 6.2 22.4 12s-4.7 10.4-10.5 10.4z" fill="#9b8f7f"></path><circle cx="11.9" cy="11.9" fill="#9b8f7f" r="1.5"></circle><circle cx="11.9" cy="7.6" fill="#9b8f7f" r="1.5"></circle><circle cx="7.6" cy="11.9" fill="#9b8f7f" r="1.5"></circle><circle cx="16.3" cy="11.9" fill="#9b8f7f" r="1.5"></circle><circle cx="11.9" cy="16.3" fill="#9b8f7f" r="1.5"></circle><path d="M95.8 11.6c-.5-.5-1.1-.7-1.9-.7-.6 0-1.1.2-1.1.6 0 .5.5.6 1.4.8l.8.2c1 .2 1.9.6 1.9 1.8 0 1.5-1.4 2.3-2.9 2.3-1.6 0-2.7-.8-3.1-1.4l1.1-.9c.4.5 1 1 2 1 .8 0 1.3-.3 1.3-.7s-.4-.5-1-.7l-1-.2c-1.2-.3-2.1-.7-2.1-1.9 0-1.5 1.4-2.1 2.7-2.1 1.3 0 2.4.6 2.8 1.1l-.9.8zM33.5 6.9h7.2v1.5h-2.8v8h-1.7v-8h-2.7V6.9zM47.4 16.4h-1.6V13c0-.5 0-.9-.1-1.3-.1-.5-.5-.8-1.2-.8-1 0-1.5.8-1.5 1.8v3.5h-1.6V6.9H43v3.7c.3-.6 1.1-1 2.1-1 .7 0 1.4.2 1.8.8.3.4.5.9.5 2.2v3.8zM54.7 14.9c-.3.5-1.2 1.7-3.1 1.7-2 0-3.3-1.4-3.3-3.5 0-2 1.4-3.4 3.3-3.4 2.1 0 3.1 1.5 3.1 3.5v.4h-4.8c.1.9.7 1.7 1.8 1.7 1.2 0 1.7-.8 1.9-1.1l1.1.7zm-4.9-2.6H53c0-.9-.7-1.5-1.5-1.5-.9.1-1.6.7-1.7 1.5zM56.1 12.5h13.4v.4H56.1v-.4zM70.8 16.4V6.9h2.6c1.5 0 2.5 0 3.4.7 1 .7 1.8 2.2 1.8 4 0 1.6-.5 2.9-1.4 3.8-1 1-2.1 1-3.9 1h-2.5zm1.7-1.5h1.1c1.1 0 1.9 0 2.4-.6.5-.5.8-1.5.8-2.6s-.3-2.1-1-2.7c-.5-.5-1.3-.5-2.5-.5h-.9l.1 6.4zM82.6 9.6c2 0 3.3 1.4 3.3 3.5s-1.3 3.4-3.3 3.4-3.3-1.3-3.3-3.4 1.3-3.5 3.3-3.5zm0 5.6c1 0 1.7-.8 1.7-2.1s-.7-2.1-1.7-2.1-1.7.8-1.7 2.1.7 2.1 1.7 2.1zM90.5 16.5c-.3.1-.7.1-1.2.1-.6 0-1.3-.1-1.7-.6-.3-.3-.3-.7-.3-1.3V11H86V9.8h1.4V7.5l1.6-.4v2.7h1.5V11H89v3.4c0 .4.1.5.2.7.1.1.4.2.7.2s.5 0 .7-.1v1.3h-.1z" fill="#444445"></path></svg>