<svg width="27" height="27" viewBox="0 0 27 27" fill="none" xmlns="http://www.w3.org/2000/svg">
<path d="M12.4387 6.444C12.6377 6.444 12.8284 6.52302 12.9691 6.66367C13.1097 6.80432 13.1887 6.99509 13.1887 7.194C13.1887 7.39291 13.1097 7.58368 12.9691 7.72433C12.8284 7.86498 12.6377 7.944 12.4387 7.944H8.66475C8.29271 7.944 7.93591 8.09174 7.67277 8.35474C7.40963 8.61774 7.2617 8.97447 7.2615 9.3465V18.3173C7.2615 18.6892 7.40926 19.0459 7.67228 19.309C7.9353 19.572 8.29203 19.7197 8.664 19.7197H17.6355C17.8197 19.7198 18.0022 19.6836 18.1724 19.6132C18.3427 19.5428 18.4974 19.4395 18.6277 19.3092C18.758 19.179 18.8614 19.0243 18.9319 18.8541C19.0024 18.6839 19.0388 18.5015 19.0388 18.3173V14.5507C19.0388 14.3518 19.1178 14.1611 19.2584 14.0204C19.3991 13.8798 19.5898 13.8007 19.7888 13.8007C19.9877 13.8007 20.1784 13.8798 20.3191 14.0204C20.4597 14.1611 20.5388 14.3518 20.5388 14.5507V18.3173C20.5388 19.087 20.233 19.8253 19.6886 20.3696C19.1443 20.914 18.406 21.2197 17.6362 21.2197H8.664C8.28277 21.2198 7.90526 21.1448 7.55303 20.999C7.2008 20.8532 6.88074 20.6394 6.61114 20.3699C6.34154 20.1004 6.12767 19.7804 5.98176 19.4282C5.83585 19.076 5.76075 18.6985 5.76075 18.3173V9.34725C5.76075 8.57746 6.06655 7.8392 6.61087 7.29487C7.1552 6.75055 7.89346 6.44475 8.66325 6.44475H12.438L12.4387 6.444ZM11.514 15.1207L11.4075 15.573L11.8597 15.4665L11.514 15.1207V15.1207ZM18.3675 7.425L12.1553 13.6387L13.3403 14.8253L19.5532 8.61C19.6113 8.55191 19.6439 8.47314 19.6439 8.391C19.6439 8.30886 19.6113 8.23009 19.5532 8.172L18.8055 7.42425C18.7472 7.36654 18.6685 7.33417 18.5865 7.33417C18.5045 7.33417 18.4258 7.36654 18.3675 7.42425V7.425ZM10.3995 13.3575L10.4167 13.317L10.4265 13.2983L10.4362 13.2795C10.4508 13.2517 10.4676 13.2251 10.4865 13.2L10.506 13.1745C10.5223 13.1537 10.5398 13.1339 10.5585 13.1152L10.5637 13.1093L17.3063 6.36375C17.6458 6.02442 18.1061 5.83381 18.5861 5.83381C19.0661 5.83381 19.5265 6.02442 19.866 6.36375L20.6138 7.1115C21.3203 7.818 21.321 8.964 20.6138 9.6705L13.8713 16.416L13.8622 16.4257L13.8345 16.4512L13.8307 16.4535L13.8608 16.4257L13.8195 16.4625L13.788 16.488C13.7705 16.5015 13.7522 16.514 13.7333 16.5255L13.707 16.5405C13.6918 16.5491 13.6763 16.5571 13.6605 16.5645C13.6455 16.572 13.6313 16.5773 13.617 16.5833L13.5833 16.596L13.5383 16.6095L13.5135 16.6163L10.5705 17.3107C10.4461 17.3401 10.3162 17.3372 10.1932 17.3023C10.0703 17.2673 9.95825 17.2015 9.86786 17.1111C9.77746 17.0207 9.71167 16.9087 9.67673 16.7858C9.6418 16.6628 9.63888 16.5329 9.66825 16.4085L10.365 13.467L10.377 13.422L10.3717 13.4393L10.3762 13.4227L10.38 13.4108L10.377 13.4227L10.3815 13.407L10.3995 13.3568V13.3575Z" fill="white"/>
</svg>
