<svg class="" height="34" version="1.1" viewBox="0 0 24 24" width="34" xmlns="http://www.w3.org/2000/svg"><path d="M11.948,0C5.36,0,0,5.36,0,11.948c0,6.588,5.36,11.948,11.948,11.948s11.948-5.36,11.948-11.948C23.897,5.36,18.537,0,11.948,0z M11.948,22.447c-5.789,0-10.499-4.71-10.499-10.499S6.159,1.45,11.948,1.45s10.499,4.71,10.499,10.498S17.737,22.447,11.948,22.447z" fill="#ececec"></path><circle cx="11.948" cy="11.948" fill="#ececec" r="1.456"></circle><circle cx="11.948" cy="7.581" fill="#ececec" r="1.456"></circle><circle cx="7.581" cy="11.948" fill="#ececec" r="1.456"></circle><circle cx="16.315" cy="11.948" fill="#ececec" r="1.456"></circle><circle cx="11.948" cy="16.315" fill="#ececec" r="1.456"></circle></svg>