<svg height="70" width="70" xmlns="http://www.w3.org/2000/svg" class="Icons__Svg-sc-18oh6yi-0 fDjRKo"><g fill="none"><circle cx="35" cy="35" fill="#F8F8F8" r="35"></circle><path d="M34.058 48.18a.473.473 0 11-.789.521l-5.644-8.553a.47.47 0 01-.076-.208 5.52 5.52 0 01-5.049-5.499v-.599a5.518 5.518 0 015.519-5.519h1.863c3.78 0 7.485-1.062 10.692-3.066l.073-.046c1.82-1.138 4.18.17 4.18 2.318v3.502a3.147 3.147 0 01.001 6.22v3.503c0 2.146-2.362 3.455-4.18 2.32l-.076-.048a20.165 20.165 0 00-10.69-3.066h-1.25zm9.824-20.651c0-1.404-1.544-2.26-2.735-1.515l-.074.045a21.106 21.106 0 01-10.388 3.195v6.058a.488.488 0 01-.5.473.487.487 0 01-.5-.473l-.001-6.044h-1.665a4.573 4.573 0 00-4.568 4.359l-.005.215v.599a4.572 4.572 0 004.573 4.573h1.863c3.957 0 7.836 1.112 11.19 3.209l.077.047c1.189.744 2.733-.112 2.733-1.516zm.946 4.463v4.298a2.202 2.202 0 000-4.298z" fill="#383839"></path></g></svg>