<svg width="700" height="700" viewBox="0 0 700 700" fill="none" xmlns="http://www.w3.org/2000/svg">
<circle cx="350" cy="350" r="350" fill="#B6B5B5"/>
<path d="M481.25 244H218.75C213.777 244 209.008 245.869 205.492 249.196C201.975 252.524 200 257.036 200 261.742V439.161C200 443.867 201.975 448.379 205.492 451.707C209.008 455.034 213.777 456.903 218.75 456.903H481.25C486.223 456.903 490.992 455.034 494.508 451.707C498.025 448.379 500 443.867 500 439.161V261.742C500 257.036 498.025 252.524 494.508 249.196C490.992 245.869 486.223 244 481.25 244ZM466.812 439.161H234.312L299.938 374.935L286.438 362.605L218.75 428.871V275.226L335.281 384.96C338.794 388.264 343.547 390.119 348.5 390.119C353.453 390.119 358.206 388.264 361.719 384.96L481.25 272.476V427.718L412.25 362.427L399.031 374.935L466.812 439.161ZM231.031 261.742H466.062L348.5 372.363L231.031 261.742Z" fill="white"/>
</svg>
