<svg width="100" height="72" viewBox="0 0 100 72" fill="none" xmlns="http://www.w3.org/2000/svg">
<path d="M96.6667 71.9093H3.33333C2.44928 71.9093 1.60143 71.5649 0.976311 70.9519C0.351189 70.339 0 69.5076 0 68.6407C0 67.7738 0.351189 66.9424 0.976311 66.3294C1.60143 65.7164 2.44928 65.3721 3.33333 65.3721H96.6667C97.5507 65.3721 98.3986 65.7164 99.0237 66.3294C99.6488 66.9424 100 67.7738 100 68.6407C100 69.5076 99.6488 70.339 99.0237 70.9519C98.3986 71.5649 97.5507 71.9093 96.6667 71.9093Z" fill="#5F5F5F"/>
<path d="M96.6667 39.2233H3.33333C2.44928 39.2233 1.60143 38.8789 0.976311 38.2659C0.351189 37.6529 0 36.8215 0 35.9546C0 35.0878 0.351189 34.2564 0.976311 33.6434C1.60143 33.0304 2.44928 32.686 3.33333 32.686H96.6667C97.5507 32.686 98.3986 33.0304 99.0237 33.6434C99.6488 34.2564 100 35.0878 100 35.9546C100 36.8215 99.6488 37.6529 99.0237 38.2659C98.3986 38.8789 97.5507 39.2233 96.6667 39.2233Z" fill="#5F5F5F"/>
<path d="M96.6667 6.53722H3.33333C2.44928 6.53722 1.60143 6.19285 0.976311 5.57986C0.351189 4.96688 0 4.1355 0 3.26861C0 2.40172 0.351189 1.57034 0.976311 0.957354C1.60143 0.344371 2.44928 0 3.33333 0H96.6667C97.5507 0 98.3986 0.344371 99.0237 0.957354C99.6488 1.57034 100 2.40172 100 3.26861C100 4.1355 99.6488 4.96688 99.0237 5.57986C98.3986 6.19285 97.5507 6.53722 96.6667 6.53722Z" fill="#5F5F5F"/>
</svg>
